<?xml version="1.0" standalone="no"?>
<!DOCTYPE svg PUBLIC "-//W3C//DTD SVG 20010904//EN"
 "http://www.w3.org/TR/2001/REC-SVG-20010904/DTD/svg10.dtd">
<svg version="1.0" xmlns="http://www.w3.org/2000/svg"
 width="1211.000000pt" height="1211.000000pt" viewBox="0 0 1211.000000 1211.000000"
 preserveAspectRatio="xMidYMid meet">
<metadata>
Created by potrace 1.14, written by Peter Selinger 2001-2017
</metadata>
<g transform="translate(0.000000,1211.000000) scale(0.100000,-0.100000)"
fill="#000000" stroke="none">
<path d="M747 7474 c-1 -1 -27 -5 -57 -8 -279 -33 -496 -188 -604 -433 -89
-204 -102 -392 -42 -653 3 -14 26 -67 51 -118 85 -172 246 -301 438 -351 263
-69 532 -35 714 90 71 49 161 130 164 147 6 34 2 635 -4 639 -6 4 -408 6 -599
4 l-48 -1 3 -127 2 -128 193 0 192 0 1 -105 c2 -185 7 -174 -116 -235 -168
-84 -424 -59 -565 53 -61 49 -85 77 -120 143 -110 208 -67 509 96 673 63 63
148 110 235 130 78 19 213 14 289 -9 62 -19 164 -73 197 -104 12 -11 28 -18
35 -14 7 3 49 44 93 90 l80 85 -45 40 c-98 88 -274 167 -410 185 -38 5 -169
11 -173 7z"/>
<path d="M3951 7430 c-4 -3 -7 -344 -6 -758 0 -556 3 -755 11 -760 7 -4 72 -6
145 -4 l134 3 0 252 0 252 134 2 c92 1 138 -2 145 -11 18 -18 86 -96 151 -171
33 -37 67 -76 75 -85 16 -17 111 -128 145 -169 62 -75 49 -71 235 -71 130 0
170 3 170 13 0 11 -15 29 -104 127 -17 19 -69 78 -115 130 -46 52 -116 130
-155 174 -68 75 -83 100 -61 102 62 4 185 71 240 131 92 99 139 278 112 433
-25 143 -125 280 -252 344 -98 49 -178 64 -358 66 -421 5 -640 5 -646 0z m809
-281 c99 -31 164 -120 164 -224 0 -80 -17 -126 -65 -174 -65 -65 -103 -72
-366 -72 -126 -1 -235 0 -244 0 -15 1 -17 26 -18 237 0 131 1 240 3 243 7 11
489 2 526 -10z"/>
<path d="M5738 7435 c-1 0 -2 -343 -3 -762 l-2 -763 81 -1 c110 -1 200 2 205
6 2 2 4 116 4 253 l0 249 137 1 136 0 40 -46 c44 -52 230 -266 309 -357 29
-33 61 -70 72 -82 20 -24 32 -25 251 -24 73 1 112 5 112 12 0 8 -187 228 -220
259 -21 19 -230 259 -230 264 0 3 22 12 48 20 205 60 328 236 324 462 -2 91
-16 153 -52 229 -71 147 -235 254 -415 272 -29 2 -569 8 -797 8z m812 -286
c101 -33 162 -120 162 -232 0 -123 -73 -211 -193 -232 -29 -5 -311 -9 -455 -6
l-42 1 1 240 c0 203 3 240 15 242 42 8 481 -3 512 -13z"/>
<path d="M7570 7430 l-55 -5 0 -753 c0 -415 3 -756 7 -758 10 -6 1119 -6 1125
0 4 4 7 235 4 271 -1 7 -146 10 -423 10 l-423 0 -2 170 -2 170 412 0 412 0 0
135 0 135 -410 0 -410 0 -2 173 c-1 94 1 172 5 172 4 0 195 1 425 1 l417 0 1
27 c0 15 2 78 2 139 l2 113 -115 0 c-63 0 -295 2 -515 3 -220 1 -425 0 -455
-3z"/>
<path d="M9310 7432 l-115 -3 1 -125 c1 -69 4 -128 7 -131 3 -3 112 -5 240 -4
l235 1 0 -626 c0 -344 2 -627 4 -629 6 -6 50 -7 169 -6 l115 1 0 628 0 627
175 2 c95 1 204 2 241 2 l67 1 0 126 c-1 89 -4 127 -13 130 -14 5 -950 10
-1126 6z"/>
<path d="M10943 7432 c-46 -2 -83 -6 -84 -10 -7 -50 -2 -245 6 -248 5 -2 114
-5 240 -6 l230 -3 0 -628 0 -628 145 3 145 3 1 615 c1 338 2 620 3 627 1 9 57
12 216 12 118 0 226 1 239 1 l24 0 0 130 1 130 -202 0 c-111 0 -355 2 -542 3
-187 1 -377 1 -422 -1z"/>
<path d="M2356 7117 c-77 -171 -152 -339 -167 -372 -15 -33 -54 -121 -87 -195
-33 -74 -71 -160 -85 -190 -101 -222 -197 -443 -194 -447 8 -7 301 -3 307 4 4
5 32 67 64 138 32 72 60 132 63 135 3 3 182 5 398 6 l394 0 32 -70 c101 -223
97 -216 121 -217 69 -1 283 3 286 5 1 2 -18 47 -43 101 -25 53 -45 99 -45 102
0 3 -14 35 -31 71 -17 37 -95 211 -174 387 -195 436 -202 452 -231 515 -14 30
-53 118 -87 195 l-63 140 -159 2 -160 3 -139 -313z m382 -202 c33 -77 90 -207
126 -289 36 -82 66 -152 66 -155 0 -8 -537 -7 -545 1 -3 3 3 27 14 52 44 97
60 134 101 231 23 55 55 128 71 163 16 34 29 64 29 66 0 2 12 30 26 61 32 69
22 80 112 -130z"/>
<path d="M5297 5248 c-105 -13 -176 -63 -222 -154 -25 -51 -29 -70 -29 -144 0
-135 46 -214 155 -269 56 -28 68 -30 152 -28 80 2 99 6 145 31 77 43 79 48 35
89 l-37 36 -44 -26 c-77 -45 -177 -37 -240 21 -73 65 -80 199 -16 276 36 42
77 61 140 65 44 3 64 -1 107 -23 l52 -28 33 37 33 37 -34 26 c-36 28 -107 57
-147 60 -14 1 -51 -2 -83 -6z"/>
<path d="M9528 5246 c-105 -38 -144 -108 -118 -205 18 -66 92 -110 210 -125
101 -12 140 -36 140 -86 0 -96 -191 -114 -268 -26 l-29 33 -39 -20 c-49 -25
-47 -22 -40 -44 15 -46 81 -99 143 -115 38 -9 141 -12 178 -4 102 21 165 89
165 178 0 106 -70 165 -217 183 -78 9 -132 33 -139 61 -23 90 158 120 238 40
12 -12 20 -11 56 5 23 11 42 23 42 28 0 19 -44 63 -83 83 -53 27 -184 35 -239
14z"/>
<path d="M2608 5242 c-43 -3 -50 -7 -105 -69 -32 -37 -62 -71 -68 -77 -5 -6
-27 -30 -47 -54 l-38 -42 0 120 0 121 -57 -3 -56 -3 1 -270 c0 -148 1 -278 1
-287 1 -14 11 -16 56 -16 l55 1 0 126 0 126 66 -70 c36 -39 90 -95 120 -126
l53 -57 71 1 71 0 -33 35 c-70 74 -116 122 -182 191 l-69 72 29 31 c16 17 40
43 54 58 14 15 50 54 80 86 97 104 95 101 68 105 -13 2 -44 3 -70 1z"/>
<path d="M3333 5242 l-43 -3 0 -288 0 -288 55 -2 55 -1 1 43 c0 38 0 462 -1
513 0 26 -11 30 -67 26z"/>
<path d="M4093 5242 c-46 -2 -83 -7 -84 -12 -1 -6 -2 -27 -2 -47 l-1 -38 92
-3 92 -3 -1 -217 c0 -119 0 -227 0 -239 1 -20 5 -22 54 -20 l52 2 3 238 2 237
90 0 c65 0 90 4 91 13 3 26 0 79 -3 83 -6 5 -283 10 -385 6z"/>
<path d="M6178 5242 l-38 -3 0 -290 0 -289 55 0 55 0 1 58 c0 31 1 84 2 117
l2 59 140 1 139 0 1 -115 0 -115 53 -3 c44 -3 52 0 53 15 0 10 2 140 2 290 l2
271 -36 4 c-73 7 -74 5 -74 -112 1 -58 -1 -112 -3 -120 -2 -13 -26 -15 -140
-13 l-137 1 -3 120 c-3 133 -1 130 -74 124z"/>
<path d="M7314 5240 l-61 -5 1 -286 0 -286 215 1 216 1 3 53 3 52 -118 1 c-65
0 -138 1 -163 2 l-45 2 0 63 -1 62 157 0 156 0 -1 44 c-1 25 -5 48 -9 52 -4 4
-73 8 -154 8 l-147 1 -2 63 c0 34 2 62 5 63 3 1 76 2 161 3 l155 1 3 53 3 52
-73 0 c-40 1 -111 2 -158 3 -47 1 -112 0 -146 -3z"/>
<path d="M8679 5225 c0 -11 0 -92 0 -180 -1 -143 -2 -158 -15 -140 -8 11 -71
91 -140 178 l-125 157 -44 0 c-49 0 -47 5 -47 -85 0 -19 1 -138 1 -264 l1
-229 54 0 54 1 0 186 c0 102 3 186 7 186 4 0 35 -37 69 -81 33 -45 98 -129
143 -187 78 -99 84 -105 118 -104 l35 1 -2 290 -3 289 -53 1 c-45 1 -52 -1
-53 -19z"/>
<path d="M17 4970 c-7 -3 -12 -22 -12 -42 l-1 -37 933 0 933 0 0 42 0 42 -920
0 c-507 0 -926 -2 -933 -5z"/>
<path d="M10176 4970 c-2 -4 0 -53 3 -72 1 -4 435 -7 966 -7 l965 0 0 39 c0
25 -5 40 -12 41 -41 4 -1920 3 -1922 -1z"/>
</g>
</svg>
