<svg version="1.1" id="Layer_1" xmlns="http://www.w3.org/2000/svg" xmlns:xlink="http://www.w3.org/1999/xlink" x="0px" y="0px"
	 width="100%" viewBox="0 0 1838 470" enable-background="new 0 0 1838 470" xml:space="preserve">
<path fill="#044B94" fill-opacity="0" opacity="1.000000" stroke="none" 
	d="
M1.000002,455.000000 
	C1.000000,303.694702 1.000000,152.389389 1.000000,1.000000 
	C598.361389,1.000000 1195.722778,1.000000 1793.392822,1.381672 
	C1780.653931,3.142545 1770.712769,10.110563 1764.743896,21.128716 
	C1751.818115,44.989132 1766.305176,70.648064 1792.994751,75.246132 
	C1809.262939,78.048859 1823.554321,72.129669 1832.755859,57.488060 
	C1835.520996,53.088390 1836.955688,47.852665 1839.000000,42.999985 
	C1839.000000,185.624832 1839.000000,328.249664 1839.000000,471.000000 
	C1508.971924,471.000000 1178.943970,471.000000 848.429688,470.663269 
	C847.944336,470.101288 847.945251,469.876007 848.334290,469.610657 
	C849.755127,469.484406 850.787964,469.398254 852.032349,469.454346 
	C852.485168,469.385742 852.726440,469.174896 853.382751,468.918091 
	C855.460693,468.794464 857.123596,468.716797 859.190430,468.752533 
	C862.062683,468.222351 864.531067,467.578735 867.341614,466.878967 
	C868.369202,466.720703 869.054626,466.618561 870.089233,466.640198 
	C871.958069,466.143158 873.477661,465.522308 875.378357,464.856201 
	C876.775635,464.719330 877.791809,464.627716 879.057251,464.606628 
	C879.492981,464.414062 879.679382,464.150940 880.084839,463.796021 
	C880.304016,463.704193 880.752747,463.547638 881.065796,463.668671 
	C881.917908,463.489410 882.457092,463.189117 883.385193,462.834625 
	C889.757690,460.670013 895.741211,458.559631 902.038330,456.583252 
	C903.195374,456.106537 904.038818,455.495850 905.235962,454.777435 
	C908.997375,453.222443 912.405151,451.775177 916.029785,450.451355 
	C916.633850,450.517548 916.851013,450.294586 917.207886,449.810577 
	C918.282166,449.321564 919.046753,448.927856 920.058228,448.609314 
	C920.513245,448.434357 920.721375,448.184265 921.250488,447.822693 
	C922.988953,447.013855 924.406433,446.316528 926.082153,445.678101 
	C926.529480,445.464752 926.718445,445.192444 927.207275,444.790527 
	C928.631653,444.048065 929.756165,443.435242 931.142700,442.815613 
	C931.595459,442.531525 931.786316,442.254181 932.317627,441.860901 
	C935.041626,440.398468 937.425171,439.052002 940.136902,437.762939 
	C941.261414,437.168335 942.057678,436.516327 943.165405,435.723877 
	C945.586426,434.225403 947.696106,432.867340 950.051758,431.587341 
	C950.483032,431.404724 950.668335,431.144012 951.115967,430.703369 
	C951.929932,430.243713 952.481445,429.964020 953.101562,430.132812 
	C953.335510,431.158783 953.500977,431.736298 953.574219,432.591034 
	C953.400940,433.249359 953.319885,433.630463 952.928345,434.164276 
	C952.558167,434.960968 952.498413,435.604919 952.381104,436.555359 
	C952.242676,437.269348 952.161743,437.676849 951.854980,438.194366 
	C951.589722,438.408478 951.500122,438.524384 951.521301,438.614288 
	C951.567078,438.808685 951.669495,438.989746 951.666992,439.526855 
	C951.477600,440.589539 951.369995,441.301697 950.922485,442.187347 
	C950.275330,444.341888 949.968018,446.322937 949.574585,448.583984 
	C949.412292,449.247192 949.335999,449.630371 948.953369,450.159241 
	C948.536377,450.935699 948.425842,451.566376 948.186829,452.536133 
	C947.824890,454.250824 947.591370,455.626465 947.253967,457.614197 
	C949.592896,457.614197 951.221069,457.614258 952.849243,457.614166 
	C988.505005,457.612335 1024.160767,457.610687 1059.816528,457.608429 
	C1071.162964,457.607727 1071.306274,457.661865 1075.434814,446.878571 
	C1083.662598,425.387756 1091.786987,403.856659 1099.821655,382.292847 
	C1107.627686,361.342712 1115.161377,340.290771 1123.014038,319.358246 
	C1129.625122,301.735199 1136.660278,284.271027 1143.252563,266.641052 
	C1149.335205,250.374313 1154.953003,233.934006 1161.003296,217.654861 
	C1168.327759,197.948013 1175.895386,178.331650 1183.347412,158.672165 
	C1184.479614,155.685425 1185.554688,152.677124 1186.874878,149.083755 
	C1174.656982,149.083755 1163.356079,149.064667 1152.055176,149.087448 
	C1121.408691,149.149216 1090.760254,149.417313 1060.117188,149.128693 
	C1054.551636,149.076263 1052.198120,150.912643 1050.424805,155.823517 
	C1044.133179,173.247391 1037.633667,190.600418 1030.925415,207.868530 
	C1021.932373,231.017609 1012.590332,254.030914 1003.553650,277.163300 
	C997.234802,293.338715 991.472961,309.737122 984.904236,325.807800 
	C980.007751,337.787170 971.400452,346.865234 960.540833,353.970581 
	C949.077942,361.470642 936.950623,366.906494 923.060974,367.293518 
	C916.038940,367.489136 909.234009,366.597107 903.108826,362.415070 
	C891.287537,354.343994 890.441162,337.973236 894.705505,325.674408 
	C903.375305,300.669739 913.265747,276.088440 922.644287,251.329300 
	C932.851196,224.383453 943.061157,197.438751 953.239990,170.482285 
	C955.856018,163.554077 958.360107,156.583618 961.083557,149.175903 
	C959.162598,149.052032 958.044678,148.919968 956.926392,148.916916 
	C942.627441,148.877899 928.328491,148.843872 914.029541,148.835037 
	C887.930603,148.818909 861.831726,148.808136 835.732788,148.834015 
	C833.168945,148.836563 830.547424,148.316849 829.244019,151.876663 
	C824.461365,164.938873 819.310242,177.865662 814.452515,190.901047 
	C805.080505,216.050095 795.879517,241.263000 786.480042,266.401672 
	C780.283386,282.974487 773.517639,299.341736 767.630310,316.021149 
	C760.046753,337.506012 749.700500,358.105530 746.991699,381.192993 
	C745.377075,394.954773 745.632385,408.601837 750.327271,421.564575 
	C757.793213,442.178131 772.688171,455.882385 793.160767,464.121338 
	C793.956238,464.477905 794.597961,464.527466 795.543335,464.632812 
	C796.249695,464.772156 796.652283,464.855713 797.218262,465.244385 
	C798.664551,465.899353 799.947571,466.249146 801.525024,466.651184 
	C802.213257,466.766998 802.606934,466.830658 803.194153,467.171295 
	C804.020752,467.443542 804.653748,467.438812 805.571716,467.504639 
	C806.240601,467.650482 806.624634,467.725800 807.161011,468.109253 
	C807.954956,468.473236 808.596558,468.529083 809.611511,468.643677 
	C810.989502,468.780853 811.994080,468.859314 813.198120,469.209900 
	C814.028015,469.459076 814.658447,469.436218 815.662964,469.455811 
	C817.036926,469.588928 818.036743,469.679596 819.038391,470.078003 
	C819.026794,470.590546 819.013367,470.795288 819.000000,471.000000 
	C546.333313,471.000000 273.666656,471.000000 1.000000,471.000000 
	C1.000000,466.914673 1.000000,462.916718 1.399457,458.382111 
	C4.599236,458.028717 7.468074,458.650635 10.173760,458.227997 
	C11.755179,457.981018 13.836861,456.350281 14.395466,454.856628 
	C19.534037,441.116486 24.315374,427.243408 29.342411,413.460724 
	C37.554028,390.946899 45.845821,368.462219 54.153221,345.983521 
	C60.697990,328.274261 67.447548,310.639404 73.833511,292.873505 
	C76.105728,286.552124 78.259903,280.046112 79.261848,273.441406 
	C81.065910,261.549316 75.743790,252.534760 62.127411,252.271301 
	C50.997639,252.055954 39.857845,252.355896 28.728273,252.135452 
	C26.501240,252.091339 24.300322,250.728821 22.087360,249.974213 
	C22.855040,247.750092 23.553053,245.497955 24.430195,243.317886 
	C24.716808,242.605530 25.430090,242.039688 26.015142,241.476303 
	C38.828728,229.137527 51.656620,216.813599 64.471672,204.476318 
	C80.030357,189.497726 95.553612,174.482178 111.151764,159.544830 
	C114.987122,155.871948 118.795113,152.083206 123.076729,148.984833 
	C128.947769,144.736298 132.993500,145.965408 135.306534,152.804169 
	C136.814117,157.261551 137.255157,162.110291 137.907120,166.820648 
	C139.792603,180.443176 141.629257,194.073761 143.313019,207.722412 
	C144.266617,215.452209 144.762268,223.237839 145.674759,230.973480 
	C147.695038,248.100189 149.905655,265.204529 151.901428,282.333984 
	C152.326477,285.982178 154.148560,291.113678 149.770065,292.516144 
	C147.096497,293.372528 142.700668,290.817841 139.841476,288.743408 
	C132.594223,283.485291 125.746773,277.671570 118.795715,272.010986 
	C110.101669,264.930939 101.489388,265.017670 94.405975,273.729767 
	C90.352913,278.714783 87.652527,285.035614 85.305466,291.125854 
	C79.128983,307.152863 73.513855,323.395508 67.611374,339.528900 
	C58.177895,365.313690 48.717239,391.088593 39.219028,416.849579 
	C34.653721,429.231537 29.949226,441.562256 25.404211,453.951538 
	C25.063477,454.880310 25.077728,456.478119 25.649948,457.106262 
	C27.712368,459.370270 36.572781,457.129364 37.657337,454.211487 
	C43.069340,439.650848 48.540592,425.111786 53.863506,410.518646 
	C61.794266,388.775879 69.550812,366.969482 77.508080,345.236511 
	C84.396515,326.422760 91.439774,307.665527 98.457611,288.899384 
	C101.625114,280.429260 108.505745,278.802856 115.610306,284.760162 
	C118.279373,286.998260 120.883865,289.322632 123.652611,291.430634 
	C129.716644,296.047546 135.570435,301.044495 142.071533,304.952179 
	C147.724976,308.350311 154.060501,307.702789 159.399399,303.591675 
	C164.396179,299.743988 166.107681,294.615723 164.950012,288.138275 
	C163.668686,280.968872 163.308884,273.637085 162.485580,266.383057 
	C160.988983,253.196854 159.542145,240.003906 157.897964,226.835815 
	C155.987335,211.533600 153.873306,196.256866 151.873337,180.965698 
	C150.432602,169.950317 149.227646,158.899841 147.550003,147.921173 
	C146.390976,140.336349 138.290390,134.025589 130.714005,133.386703 
	C123.049423,132.740356 117.666153,136.760773 112.723289,141.468872 
	C97.549980,155.921539 82.624947,170.634430 67.531883,185.171890 
	C49.364040,202.670944 31.097534,220.067566 12.932257,237.569260 
	C8.755968,241.593002 6.732000,251.544144 8.872119,256.210449 
	C11.618422,262.198517 18.481802,264.075256 24.923725,264.087830 
	C36.391319,264.110168 47.859192,263.543060 59.328255,263.486237 
	C63.777916,263.464172 66.769417,266.080353 66.538231,270.637360 
	C66.289436,275.541290 65.709450,280.567413 64.289398,285.241089 
	C62.037716,292.651825 58.925205,299.798340 56.251053,307.083862 
	C45.857903,335.399139 35.480820,363.720337 25.124790,392.049225 
	C19.968012,406.155579 14.987957,420.327820 9.694936,434.382477 
	C7.068212,441.357269 3.915022,448.133789 1.000002,455.000000 
M1679.686035,139.722641 
	C1627.414673,136.965210 1583.025024,158.373962 1540.460693,185.684937 
	C1539.895020,184.696869 1539.533203,184.159515 1539.263062,183.579437 
	C1531.824097,167.596985 1519.828979,155.979599 1504.411499,147.869339 
	C1481.693237,135.918442 1457.299072,134.478149 1432.607178,138.323746 
	C1405.513306,142.543396 1380.318481,152.427124 1356.969971,166.916992 
	C1351.557617,170.275879 1345.954224,173.326813 1339.913452,176.823502 
	C1339.913452,175.384949 1339.751953,174.564880 1339.938721,173.833694 
	C1341.619629,167.248764 1343.262451,160.651169 1345.124390,154.116486 
	C1346.177124,150.422058 1345.337036,148.947464 1341.228271,149.011261 
	C1326.068726,149.246628 1310.905151,149.296173 1295.743164,149.285812 
	C1270.922241,149.268845 1246.101074,149.181305 1221.280640,149.033340 
	C1218.348145,149.015869 1216.100220,149.444702 1214.966919,152.581253 
	C1212.157959,160.356506 1209.126099,168.051392 1206.324341,175.829193 
	C1198.414429,197.786972 1190.666992,219.803680 1182.682129,241.734070 
	C1174.414917,264.439972 1165.943726,287.071716 1157.562622,309.736237 
	C1148.022461,335.535217 1138.474976,361.331543 1128.945801,387.134583 
	C1120.864746,409.016174 1112.790039,430.900116 1104.772095,452.804810 
	C1104.250122,454.230560 1104.238770,455.843140 1104.009521,457.248962 
	C1104.966309,457.585846 1105.271606,457.787750 1105.576660,457.787384 
	C1149.068359,457.735596 1192.560913,457.528351 1236.050537,457.802124 
	C1240.859375,457.832397 1242.284546,456.194427 1243.691406,452.346252 
	C1250.211792,434.510193 1256.928223,416.745300 1263.644287,398.981232 
	C1277.819092,361.488220 1292.086426,324.030029 1306.211548,286.518311 
	C1311.137695,273.436737 1315.508057,260.220520 1326.880493,250.748871 
	C1338.537231,241.040543 1351.328003,234.539200 1366.790405,236.249878 
	C1385.040527,238.269012 1395.156616,253.822311 1389.835083,269.613586 
	C1384.234863,286.232178 1378.184814,302.704376 1372.065063,319.141418 
	C1363.459229,342.256073 1354.534058,365.251709 1345.883301,388.349884 
	C1337.923584,409.602692 1330.189331,430.939911 1322.257568,452.203308 
	C1320.249146,457.587250 1320.126343,457.610199 1325.882446,457.611298 
	C1351.047363,457.616089 1376.212280,457.611877 1401.377197,457.612518 
	C1420.875854,457.613037 1440.375732,457.717468 1459.871338,457.474792 
	C1462.035156,457.447876 1465.477661,455.956390 1466.128540,454.287018 
	C1475.073486,431.343323 1483.653442,408.256958 1492.279053,385.189178 
	C1498.948975,367.352051 1505.571533,349.497223 1512.188965,331.640503 
	C1518.004150,315.948273 1523.359497,300.067749 1529.743042,284.611084 
	C1533.311035,275.971588 1537.347046,267.000061 1543.295044,259.975861 
	C1556.511719,244.367676 1573.805786,237.606689 1594.443359,241.874405 
	C1605.429565,244.146286 1612.157227,253.136032 1612.901733,264.307831 
	C1613.666870,275.791504 1608.789917,285.781647 1605.381592,296.082581 
	C1600.599365,310.535950 1594.675537,324.607697 1589.439209,338.915619 
	C1579.869873,365.063385 1570.471924,391.273773 1560.951050,417.439423 
	C1556.544067,429.550842 1552.038086,441.626434 1547.528564,453.700226 
	C1546.408691,456.698273 1546.913574,457.929077 1550.500854,457.820953 
	C1559.323853,457.555084 1568.158203,457.622925 1576.987915,457.618347 
	C1610.985596,457.600647 1644.984619,457.461823 1678.979614,457.761780 
	C1684.066406,457.806610 1686.763550,456.980469 1688.268677,451.739960 
	C1690.451904,444.138489 1693.497314,436.781189 1696.248291,429.346893 
	C1703.823486,408.876190 1711.428467,388.416626 1719.037109,367.958405 
	C1726.028076,349.161377 1733.008667,330.360352 1740.049316,311.581970 
	C1748.019653,290.324554 1756.095581,269.106689 1764.041992,247.840424 
	C1769.383667,233.544464 1770.001587,218.800064 1766.135254,204.216278 
	C1761.404785,186.373611 1751.358032,171.636017 1736.606934,160.464813 
	C1720.091797,147.957718 1701.141846,141.634613 1679.686035,139.722641 
M317.653717,458.754181 
	C326.728973,461.342499 335.660431,464.762054 344.906738,466.361908 
	C371.684052,470.995056 398.080444,468.182678 424.092224,460.703613 
	C455.678986,451.621674 482.786957,434.785767 506.792419,412.743530 
	C530.392944,391.073059 548.519348,365.191711 563.931335,337.256104 
	C578.293030,311.224365 589.151855,284.084198 592.413574,254.219269 
	C594.975464,230.761780 592.455750,207.970932 582.516785,186.619537 
	C563.233948,145.195251 524.937805,130.369278 485.589142,131.871124 
	C473.766998,132.322372 462.001038,135.216721 450.291901,137.428818 
	C432.769379,140.739182 416.651306,148.071762 400.651917,155.621170 
	C394.944672,158.314163 389.344055,161.233139 382.293854,164.747223 
	C399.761353,116.741203 416.676422,70.253510 433.965057,22.739054 
	C431.132019,22.739054 429.369293,22.739107 427.606567,22.739046 
	C411.898438,22.738503 396.190308,22.737558 380.482178,22.737473 
	C353.276550,22.737324 326.070038,22.846855 298.866272,22.622000 
	C294.711884,22.587664 292.942047,24.081430 291.719910,27.717560 
	C288.823639,36.334698 285.718781,44.884163 282.568085,53.412907 
	C273.787109,77.182655 264.891113,100.909966 256.132172,124.687790 
	C246.880753,149.802551 237.814728,174.985733 228.521088,200.084717 
	C219.043869,225.679459 209.362732,251.198593 199.818222,276.768524 
	C190.825775,300.859436 181.887115,324.970459 172.939178,349.078003 
	C161.243774,380.587860 149.559433,412.101868 137.878708,443.617188 
	C136.256348,447.994354 134.681625,452.389221 133.063904,456.833435 
	C134.196289,457.258850 134.644958,457.574768 135.093857,457.575104 
	C177.083771,457.607300 219.073853,457.653839 261.063080,457.485596 
	C262.755157,457.478790 265.247925,455.810608 265.987244,454.258820 
	C269.249512,447.411591 271.963745,440.305145 274.966095,433.331177 
	C276.133301,430.619965 277.537018,428.010590 278.515045,426.006409 
	C283.033997,432.069794 286.315491,438.787476 291.594147,443.006317 
	C299.275085,449.145142 308.394806,453.483734 317.653717,458.754181 
M679.845459,94.363480 
	C673.890564,110.850784 668.006104,127.363991 661.962097,143.818573 
	C655.068970,162.584457 648.053345,181.305450 641.055359,200.032669 
	C630.673523,227.815353 620.288269,255.596863 609.852600,283.359375 
	C599.723755,310.305420 589.481079,337.208710 579.377319,364.164154 
	C568.809204,392.358582 558.331238,420.586853 547.863037,448.818542 
	C546.825256,451.617554 546.130493,454.543823 545.216858,457.611450 
	C577.336853,457.611450 608.591492,457.584290 639.846008,457.624390 
	C652.962769,457.641235 666.080200,457.748840 679.195679,457.929443 
	C682.703430,457.977783 684.633362,457.125946 685.988220,453.273468 
	C691.687073,437.068573 697.985596,421.075470 703.979858,404.973297 
	C711.150085,385.711945 718.188965,366.401672 725.367004,347.143219 
	C733.739807,324.679047 742.192444,302.244598 750.627136,279.803558 
	C758.656494,258.441162 766.746948,237.101654 774.735657,215.724091 
	C780.532654,200.211380 786.130920,184.624237 791.954163,169.121521 
	C801.498535,143.712631 811.158386,118.347130 820.760498,92.959915 
	C826.203613,78.568710 831.672791,64.187096 837.045227,49.769505 
	C840.202881,41.295635 843.193909,32.759716 846.479492,23.642452 
	C844.227478,23.469456 842.800598,23.264599 841.373596,23.264055 
	C798.045532,23.247574 754.717224,23.324896 711.390015,23.132301 
	C707.271790,23.113995 705.717102,25.078781 704.565002,28.173910 
	C696.439575,50.004051 688.356445,71.849968 679.845459,94.363480 
z"/>
<path fill="#fff" opacity="1.000000" stroke="none" 
	d="
M1.000002,455.375000 
	C3.915022,448.133789 7.068212,441.357269 9.694936,434.382477 
	C14.987957,420.327820 19.968012,406.155579 25.124790,392.049225 
	C35.480820,363.720337 45.857903,335.399139 56.251053,307.083862 
	C58.925205,299.798340 62.037716,292.651825 64.289398,285.241089 
	C65.709450,280.567413 66.289436,275.541290 66.538231,270.637360 
	C66.769417,266.080353 63.777916,263.464172 59.328255,263.486237 
	C47.859192,263.543060 36.391319,264.110168 24.923725,264.087830 
	C18.481802,264.075256 11.618422,262.198517 8.872119,256.210449 
	C6.732000,251.544144 8.755968,241.593002 12.932257,237.569260 
	C31.097534,220.067566 49.364040,202.670944 67.531883,185.171890 
	C82.624947,170.634430 97.549980,155.921539 112.723289,141.468872 
	C117.666153,136.760773 123.049423,132.740356 130.714005,133.386703 
	C138.290390,134.025589 146.390976,140.336349 147.550003,147.921173 
	C149.227646,158.899841 150.432602,169.950317 151.873337,180.965698 
	C153.873306,196.256866 155.987335,211.533600 157.897964,226.835815 
	C159.542145,240.003906 160.988983,253.196854 162.485580,266.383057 
	C163.308884,273.637085 163.668686,280.968872 164.950012,288.138275 
	C166.107681,294.615723 164.396179,299.743988 159.399399,303.591675 
	C154.060501,307.702789 147.724976,308.350311 142.071533,304.952179 
	C135.570435,301.044495 129.716644,296.047546 123.652611,291.430634 
	C120.883865,289.322632 118.279373,286.998260 115.610306,284.760162 
	C108.505745,278.802856 101.625114,280.429260 98.457611,288.899384 
	C91.439774,307.665527 84.396515,326.422760 77.508080,345.236511 
	C69.550812,366.969482 61.794266,388.775879 53.863506,410.518646 
	C48.540592,425.111786 43.069340,439.650848 37.657337,454.211487 
	C36.572781,457.129364 27.712368,459.370270 25.649948,457.106262 
	C25.077728,456.478119 25.063477,454.880310 25.404211,453.951538 
	C29.949226,441.562256 34.653721,429.231537 39.219028,416.849579 
	C48.717239,391.088593 58.177895,365.313690 67.611374,339.528900 
	C73.513855,323.395508 79.128983,307.152863 85.305466,291.125854 
	C87.652527,285.035614 90.352913,278.714783 94.405975,273.729767 
	C101.489388,265.017670 110.101669,264.930939 118.795715,272.010986 
	C125.746773,277.671570 132.594223,283.485291 139.841476,288.743408 
	C142.700668,290.817841 147.096497,293.372528 149.770065,292.516144 
	C154.148560,291.113678 152.326477,285.982178 151.901428,282.333984 
	C149.905655,265.204529 147.695038,248.100189 145.674759,230.973480 
	C144.762268,223.237839 144.266617,215.452209 143.313019,207.722412 
	C141.629257,194.073761 139.792603,180.443176 137.907120,166.820648 
	C137.255157,162.110291 136.814117,157.261551 135.306534,152.804169 
	C132.993500,145.965408 128.947769,144.736298 123.076729,148.984833 
	C118.795113,152.083206 114.987122,155.871948 111.151764,159.544830 
	C95.553612,174.482178 80.030357,189.497726 64.471672,204.476318 
	C51.656620,216.813599 38.828728,229.137527 26.015142,241.476303 
	C25.430090,242.039688 24.716808,242.605530 24.430195,243.317886 
	C23.553053,245.497955 22.855040,247.750092 22.087360,249.974213 
	C24.300322,250.728821 26.501240,252.091339 28.728273,252.135452 
	C39.857845,252.355896 50.997639,252.055954 62.127411,252.271301 
	C75.743790,252.534760 81.065910,261.549316 79.261848,273.441406 
	C78.259903,280.046112 76.105728,286.552124 73.833511,292.873505 
	C67.447548,310.639404 60.697990,328.274261 54.153221,345.983521 
	C45.845821,368.462219 37.554028,390.946899 29.342411,413.460724 
	C24.315374,427.243408 19.534037,441.116486 14.395466,454.856628 
	C13.836861,456.350281 11.755179,457.981018 10.173760,458.227997 
	C7.468074,458.650635 4.599236,458.028717 1.399457,457.922729 
	C1.000000,457.250000 1.000000,456.500000 1.000002,455.375000 
z"/>
<path fill="#fff00" opacity="1.000000" stroke="none" 
	d="
M1839.000000,42.555817 
	C1836.955688,47.852665 1835.520996,53.088390 1832.755859,57.488060 
	C1823.554321,72.129669 1809.262939,78.048859 1792.994751,75.246132 
	C1766.305176,70.648064 1751.818115,44.989132 1764.743896,21.128716 
	C1770.712769,10.110563 1780.653931,3.142545 1793.850830,1.381672 
	C1797.361328,1.000000 1800.722534,1.000000 1804.680542,1.376541 
	C1808.079346,2.578915 1810.925781,3.279305 1813.675537,4.252845 
	C1824.075073,7.934527 1831.557617,14.765072 1835.610840,25.114103 
	C1836.880127,28.354746 1837.877930,31.701727 1839.000000,35.000000 
	C1839.000000,37.370556 1839.000000,39.741116 1839.000000,42.555817 
M1808.965454,6.796152 
	C1803.544800,6.743891 1798.072266,6.185665 1792.713623,6.736429 
	C1777.995850,8.249097 1766.813354,20.184200 1765.007202,33.820183 
	C1762.288086,54.346474 1775.939575,67.463799 1794.131714,70.927910 
	C1803.672363,72.744621 1812.962524,70.204918 1820.783081,64.082916 
	C1832.380249,55.004620 1837.197021,40.265049 1831.165771,25.885622 
	C1827.133301,16.271734 1819.118774,10.799232 1808.965454,6.796152 
z"/>
<path fill="#fff" opacity="1.000000" stroke="none" 
	d="
M1839.000000,34.531342 
	C1837.877930,31.701727 1836.880127,28.354746 1835.610840,25.114103 
	C1831.557617,14.765072 1824.075073,7.934527 1813.675537,4.252845 
	C1810.925781,3.279305 1808.079346,2.578915 1805.138672,1.376541 
	C1816.259888,1.000000 1827.519775,1.000000 1839.000000,1.000000 
	C1839.000000,12.019917 1839.000000,23.041300 1839.000000,34.531342 
z"/>
<path fill="#fff" opacity="1.000000" stroke="none" 
	d="
M819.468628,471.000000 
	C819.013367,470.795288 819.026794,470.590546 819.332153,469.829193 
	C826.019714,469.489014 832.414185,469.765411 838.811584,469.895630 
	C841.853516,469.957581 844.901184,469.741089 847.946228,469.650726 
	C847.945251,469.876007 847.944336,470.101288 847.971741,470.663269 
	C838.645752,471.000000 829.291565,471.000000 819.468628,471.000000 
z"/>
<path fill="#fff" opacity="1.000000" stroke="none" 
	d="
M1680.156860,139.723389 
	C1701.141846,141.634613 1720.091797,147.957718 1736.606934,160.464813 
	C1751.358032,171.636017 1761.404785,186.373611 1766.135254,204.216278 
	C1770.001587,218.800064 1769.383667,233.544464 1764.041992,247.840424 
	C1756.095581,269.106689 1748.019653,290.324554 1740.049316,311.581970 
	C1733.008667,330.360352 1726.028076,349.161377 1719.037109,367.958405 
	C1711.428467,388.416626 1703.823486,408.876190 1696.248291,429.346893 
	C1693.497314,436.781189 1690.451904,444.138489 1688.268677,451.739960 
	C1686.763550,456.980469 1684.066406,457.806610 1678.979614,457.761780 
	C1644.984619,457.461823 1610.985596,457.600647 1576.987915,457.618347 
	C1568.158203,457.622925 1559.323853,457.555084 1550.500854,457.820953 
	C1546.913574,457.929077 1546.408691,456.698273 1547.528564,453.700226 
	C1552.038086,441.626434 1556.544067,429.550842 1560.951050,417.439423 
	C1570.471924,391.273773 1579.869873,365.063385 1589.439209,338.915619 
	C1594.675537,324.607697 1600.599365,310.535950 1605.381592,296.082581 
	C1608.789917,285.781647 1613.666870,275.791504 1612.901733,264.307831 
	C1612.157227,253.136032 1605.429565,244.146286 1594.443359,241.874405 
	C1573.805786,237.606689 1556.511719,244.367676 1543.295044,259.975861 
	C1537.347046,267.000061 1533.311035,275.971588 1529.743042,284.611084 
	C1523.359497,300.067749 1518.004150,315.948273 1512.188965,331.640503 
	C1505.571533,349.497223 1498.948975,367.352051 1492.279053,385.189178 
	C1483.653442,408.256958 1475.073486,431.343323 1466.128540,454.287018 
	C1465.477661,455.956390 1462.035156,457.447876 1459.871338,457.474792 
	C1440.375732,457.717468 1420.875854,457.613037 1401.377197,457.612518 
	C1376.212280,457.611877 1351.047363,457.616089 1325.882446,457.611298 
	C1320.126343,457.610199 1320.249146,457.587250 1322.257568,452.203308 
	C1330.189331,430.939911 1337.923584,409.602692 1345.883301,388.349884 
	C1354.534058,365.251709 1363.459229,342.256073 1372.065063,319.141418 
	C1378.184814,302.704376 1384.234863,286.232178 1389.835083,269.613586 
	C1395.156616,253.822311 1385.040527,238.269012 1366.790405,236.249878 
	C1351.328003,234.539200 1338.537231,241.040543 1326.880493,250.748871 
	C1315.508057,260.220520 1311.137695,273.436737 1306.211548,286.518311 
	C1292.086426,324.030029 1277.819092,361.488220 1263.644287,398.981232 
	C1256.928223,416.745300 1250.211792,434.510193 1243.691406,452.346252 
	C1242.284546,456.194427 1240.859375,457.832397 1236.050537,457.802124 
	C1192.560913,457.528351 1149.068359,457.735596 1105.576660,457.787384 
	C1105.271606,457.787750 1104.966309,457.585846 1104.009521,457.248962 
	C1104.238770,455.843140 1104.250122,454.230560 1104.772095,452.804810 
	C1112.790039,430.900116 1120.864746,409.016174 1128.945801,387.134583 
	C1138.474976,361.331543 1148.022461,335.535217 1157.562622,309.736237 
	C1165.943726,287.071716 1174.414917,264.439972 1182.682129,241.734070 
	C1190.666992,219.803680 1198.414429,197.786972 1206.324341,175.829193 
	C1209.126099,168.051392 1212.157959,160.356506 1214.966919,152.581253 
	C1216.100220,149.444702 1218.348145,149.015869 1221.280640,149.033340 
	C1246.101074,149.181305 1270.922241,149.268845 1295.743164,149.285812 
	C1310.905151,149.296173 1326.068726,149.246628 1341.228271,149.011261 
	C1345.337036,148.947464 1346.177124,150.422058 1345.124390,154.116486 
	C1343.262451,160.651169 1341.619629,167.248764 1339.938721,173.833694 
	C1339.751953,174.564880 1339.913452,175.384949 1339.913452,176.823502 
	C1345.954224,173.326813 1351.557617,170.275879 1356.969971,166.916992 
	C1380.318481,152.427124 1405.513306,142.543396 1432.607178,138.323746 
	C1457.299072,134.478149 1481.693237,135.918442 1504.411499,147.869339 
	C1519.828979,155.979599 1531.824097,167.596985 1539.263062,183.579437 
	C1539.533203,184.159515 1539.895020,184.696869 1540.460693,185.684937 
	C1583.025024,158.373962 1627.414673,136.965210 1680.156860,139.723389 
z"/>
<path fill="#fff" opacity="1.000000" stroke="none" 
	d="
M317.277374,458.672058 
	C308.394806,453.483734 299.275085,449.145142 291.594147,443.006317 
	C286.315491,438.787476 283.033997,432.069794 278.515045,426.006409 
	C277.537018,428.010590 276.133301,430.619965 274.966095,433.331177 
	C271.963745,440.305145 269.249512,447.411591 265.987244,454.258820 
	C265.247925,455.810608 262.755157,457.478790 261.063080,457.485596 
	C219.073853,457.653839 177.083771,457.607300 135.093857,457.575104 
	C134.644958,457.574768 134.196289,457.258850 133.063904,456.833435 
	C134.681625,452.389221 136.256348,447.994354 137.878708,443.617188 
	C149.559433,412.101868 161.243774,380.587860 172.939178,349.078003 
	C181.887115,324.970459 190.825775,300.859436 199.818222,276.768524 
	C209.362732,251.198593 219.043869,225.679459 228.521088,200.084717 
	C237.814728,174.985733 246.880753,149.802551 256.132172,124.687790 
	C264.891113,100.909966 273.787109,77.182655 282.568085,53.412907 
	C285.718781,44.884163 288.823639,36.334698 291.719910,27.717560 
	C292.942047,24.081430 294.711884,22.587664 298.866272,22.622000 
	C326.070038,22.846855 353.276550,22.737324 380.482178,22.737473 
	C396.190308,22.737558 411.898438,22.738503 427.606567,22.739046 
	C429.369293,22.739107 431.132019,22.739054 433.965057,22.739054 
	C416.676422,70.253510 399.761353,116.741203 382.293854,164.747223 
	C389.344055,161.233139 394.944672,158.314163 400.651917,155.621170 
	C416.651306,148.071762 432.769379,140.739182 450.291901,137.428818 
	C462.001038,135.216721 473.766998,132.322372 485.589142,131.871124 
	C524.937805,130.369278 563.233948,145.195251 582.516785,186.619537 
	C592.455750,207.970932 594.975464,230.761780 592.413574,254.219269 
	C589.151855,284.084198 578.293030,311.224365 563.931335,337.256104 
	C548.519348,365.191711 530.392944,391.073059 506.792419,412.743530 
	C482.786957,434.785767 455.678986,451.621674 424.092224,460.703613 
	C398.080444,468.182678 371.684052,470.995056 344.906738,466.361908 
	C335.660431,464.762054 326.728973,461.342499 317.277374,458.672058 
M319.274872,325.345612 
	C319.770233,329.297729 319.959320,333.318268 320.823669,337.187958 
	C322.723236,345.692810 327.070312,352.862366 333.890045,358.342102 
	C347.949585,369.639130 363.879486,369.156006 379.784485,364.225739 
	C397.489532,358.737488 412.630951,348.801453 425.412720,335.128326 
	C443.201447,316.099091 453.471741,294.202667 452.299530,267.785950 
	C451.437439,248.358063 442.678314,234.520187 423.023254,228.747025 
	C407.631470,224.226089 393.374969,227.737244 379.873535,234.888718 
	C359.645172,245.603333 345.026886,262.226868 333.219818,281.472961 
	C325.136261,294.649567 319.694763,308.752075 319.274872,325.345612 
z"/>
<path fill="#fff" opacity="1.000000" stroke="none" 
	d="
M848.334290,469.610657 
	C844.901184,469.741089 841.853516,469.957581 838.811584,469.895630 
	C832.414185,469.765411 826.019714,469.489014 819.330322,469.521423 
	C818.036743,469.679596 817.036926,469.588928 815.569946,469.224152 
	C814.401489,468.945953 813.700134,468.941864 812.998718,468.937805 
	C811.994080,468.859314 810.989502,468.780853 809.544739,468.386414 
	C808.405945,467.980621 807.707275,467.890839 807.008606,467.801086 
	C806.624634,467.725800 806.240601,467.650482 805.487427,467.266541 
	C804.412354,466.936707 803.706482,466.915497 803.000610,466.894318 
	C802.606934,466.830658 802.213257,466.766998 801.386353,466.338196 
	C799.653748,465.628448 798.354370,465.283844 797.054932,464.939270 
	C796.652283,464.855713 796.249695,464.772156 795.468628,464.383026 
	C794.395874,463.989746 793.701477,463.902069 793.007080,463.814392 
	C772.688171,455.882385 757.793213,442.178131 750.327271,421.564575 
	C745.632385,408.601837 745.377075,394.954773 746.991699,381.192993 
	C749.700500,358.105530 760.046753,337.506012 767.630310,316.021149 
	C773.517639,299.341736 780.283386,282.974487 786.480042,266.401672 
	C795.879517,241.263000 805.080505,216.050095 814.452515,190.901047 
	C819.310242,177.865662 824.461365,164.938873 829.244019,151.876663 
	C830.547424,148.316849 833.168945,148.836563 835.732788,148.834015 
	C861.831726,148.808136 887.930603,148.818909 914.029541,148.835037 
	C928.328491,148.843872 942.627441,148.877899 956.926392,148.916916 
	C958.044678,148.919968 959.162598,149.052032 961.083557,149.175903 
	C958.360107,156.583618 955.856018,163.554077 953.239990,170.482285 
	C943.061157,197.438751 932.851196,224.383453 922.644287,251.329300 
	C913.265747,276.088440 903.375305,300.669739 894.705505,325.674408 
	C890.441162,337.973236 891.287537,354.343994 903.108826,362.415070 
	C909.234009,366.597107 916.038940,367.489136 923.060974,367.293518 
	C936.950623,366.906494 949.077942,361.470642 960.540833,353.970581 
	C971.400452,346.865234 980.007751,337.787170 984.904236,325.807800 
	C991.472961,309.737122 997.234802,293.338715 1003.553650,277.163300 
	C1012.590332,254.030914 1021.932373,231.017609 1030.925415,207.868530 
	C1037.633667,190.600418 1044.133179,173.247391 1050.424805,155.823517 
	C1052.198120,150.912643 1054.551636,149.076263 1060.117188,149.128693 
	C1090.760254,149.417313 1121.408691,149.149216 1152.055176,149.087448 
	C1163.356079,149.064667 1174.656982,149.083755 1186.874878,149.083755 
	C1185.554688,152.677124 1184.479614,155.685425 1183.347412,158.672165 
	C1175.895386,178.331650 1168.327759,197.948013 1161.003296,217.654861 
	C1154.953003,233.934006 1149.335205,250.374313 1143.252563,266.641052 
	C1136.660278,284.271027 1129.625122,301.735199 1123.014038,319.358246 
	C1115.161377,340.290771 1107.627686,361.342712 1099.821655,382.292847 
	C1091.786987,403.856659 1083.662598,425.387756 1075.434814,446.878571 
	C1071.306274,457.661865 1071.162964,457.607727 1059.816528,457.608429 
	C1024.160767,457.610687 988.505005,457.612335 952.849243,457.614166 
	C951.221069,457.614258 949.592896,457.614197 947.253967,457.614197 
	C947.591370,455.626465 947.824890,454.250824 948.449463,452.477783 
	C948.980347,451.391449 949.120056,450.702484 949.259766,450.013519 
	C949.335999,449.630371 949.412292,449.247192 949.833374,448.401550 
	C950.539612,445.963989 950.901001,443.988922 951.262390,442.013824 
	C951.369995,441.301697 951.477600,440.589539 951.825928,439.389160 
	C952.214233,438.631195 952.218933,438.359009 952.080811,438.084351 
	C952.161743,437.676849 952.242676,437.269348 952.641235,436.494659 
	C953.052124,435.422150 953.145447,434.716858 953.238831,434.011536 
	C953.319885,433.630463 953.400940,433.249359 953.828186,432.453888 
	C954.287292,431.199493 954.400146,430.359497 954.513062,429.519501 
	C954.019714,429.574463 953.526367,429.629395 953.033020,429.684326 
	C952.481445,429.964020 951.929932,430.243713 950.890076,430.703247 
	C950.074463,430.969330 949.875732,431.178070 949.805725,431.509216 
	C947.696106,432.867340 945.586426,434.225403 942.834656,435.698914 
	C941.397949,436.444733 940.603333,437.075104 939.808716,437.705505 
	C937.425171,439.052002 935.041626,440.398468 932.057617,441.878906 
	C931.265015,442.282715 931.072876,442.552582 930.880676,442.822388 
	C929.756165,443.435242 928.631653,444.048065 926.968506,444.795532 
	C926.093567,445.041779 925.891541,445.271454 925.823853,445.619171 
	C924.406433,446.316528 922.988953,447.013855 921.014404,447.807007 
	C920.109436,447.977661 919.894104,448.188110 919.811340,448.534180 
	C919.046753,448.927856 918.282166,449.321564 916.994873,449.771271 
	C916.149597,449.858856 915.929871,450.025726 915.812866,450.327881 
	C912.405151,451.775177 908.997375,453.222443 904.917969,454.742126 
	C903.405762,455.359436 902.565247,455.904358 901.724731,456.449219 
	C895.741211,458.559631 889.757690,460.670013 883.222534,462.638428 
	C882.031555,462.846832 881.392151,463.197205 880.752747,463.547607 
	C880.752747,463.547638 880.304016,463.704193 879.852905,463.789185 
	C879.070129,463.974854 878.872192,464.195496 878.807983,464.536102 
	C877.791809,464.627716 876.775635,464.719330 875.157776,464.650635 
	C872.950745,465.165710 871.345398,465.841064 869.739990,466.516418 
	C869.054626,466.618561 868.369202,466.720703 867.083984,466.672119 
	C863.918274,467.227264 861.352417,467.933167 858.786499,468.639099 
	C857.123596,468.716797 855.460693,468.794464 853.167175,468.860474 
	C852.203308,468.857117 851.964722,469.011536 851.820740,469.312073 
	C850.787964,469.398254 849.755127,469.484406 848.334290,469.610657 
z"/>
<path fill="#fff" opacity="1.000000" stroke="none" 
	d="
M680.052612,94.027168 
	C688.356445,71.849968 696.439575,50.004051 704.565002,28.173910 
	C705.717102,25.078781 707.271790,23.113995 711.390015,23.132301 
	C754.717224,23.324896 798.045532,23.247574 841.373596,23.264055 
	C842.800598,23.264599 844.227478,23.469456 846.479492,23.642452 
	C843.193909,32.759716 840.202881,41.295635 837.045227,49.769505 
	C831.672791,64.187096 826.203613,78.568710 820.760498,92.959915 
	C811.158386,118.347130 801.498535,143.712631 791.954163,169.121521 
	C786.130920,184.624237 780.532654,200.211380 774.735657,215.724091 
	C766.746948,237.101654 758.656494,258.441162 750.627136,279.803558 
	C742.192444,302.244598 733.739807,324.679047 725.367004,347.143219 
	C718.188965,366.401672 711.150085,385.711945 703.979858,404.973297 
	C697.985596,421.075470 691.687073,437.068573 685.988220,453.273468 
	C684.633362,457.125946 682.703430,457.977783 679.195679,457.929443 
	C666.080200,457.748840 652.962769,457.641235 639.846008,457.624390 
	C608.591492,457.584290 577.336853,457.611450 545.216858,457.611450 
	C546.130493,454.543823 546.825256,451.617554 547.863037,448.818542 
	C558.331238,420.586853 568.809204,392.358582 579.377319,364.164154 
	C589.481079,337.208710 599.723755,310.305420 609.852600,283.359375 
	C620.288269,255.596863 630.673523,227.815353 641.055359,200.032669 
	C648.053345,181.305450 655.068970,162.584457 661.962097,143.818573 
	C668.006104,127.363991 673.890564,110.850784 680.052612,94.027168 
z"/>
<path fill="#fff" opacity="1.000000" stroke="none" 
	d="
M859.190430,468.752533 
	C861.352417,467.933167 863.918274,467.227264 866.741821,466.728241 
	C864.531067,467.578735 862.062683,468.222351 859.190430,468.752533 
z"/>
<path fill="#EEA277" opacity="1.000000" stroke="none" 
	d="
M950.922485,442.187347 
	C950.901001,443.988922 950.539612,445.963989 949.919434,448.121521 
	C949.968018,446.322937 950.275330,444.341888 950.922485,442.187347 
z"/>
<path fill="#EEA277" opacity="1.000000" stroke="none" 
	d="
M870.089233,466.640198 
	C871.345398,465.841064 872.950745,465.165710 874.776672,464.695923 
	C873.477661,465.522308 871.958069,466.143158 870.089233,466.640198 
z"/>
<path fill="#EEA277" opacity="1.000000" stroke="none" 
	d="
M953.101562,430.132812 
	C953.526367,429.629395 954.019714,429.574463 954.513062,429.519501 
	C954.400146,430.359497 954.287292,431.199493 953.920410,432.176666 
	C953.500977,431.736298 953.335510,431.158783 953.101562,430.132812 
z"/>
<path fill="#EEA277" opacity="1.000000" stroke="none" 
	d="
M797.218262,465.244385 
	C798.354370,465.283844 799.653748,465.628448 801.091858,466.286011 
	C799.947571,466.249146 798.664551,465.899353 797.218262,465.244385 
z"/>
<path fill="#EEA277" opacity="1.000000" stroke="none" 
	d="
M940.136902,437.762939 
	C940.603333,437.075104 941.397949,436.444733 942.523315,435.839325 
	C942.057678,436.516327 941.261414,437.168335 940.136902,437.762939 
z"/>
<path fill="#EEA277" opacity="1.000000" stroke="none" 
	d="
M902.038330,456.583252 
	C902.565247,455.904358 903.405762,455.359436 904.564270,454.849854 
	C904.038818,455.495850 903.195374,456.106537 902.038330,456.583252 
z"/>
<path fill="#EEA277" opacity="1.000000" stroke="none" 
	d="
M948.953369,450.159241 
	C949.120056,450.702484 948.980347,451.391449 948.577942,452.138733 
	C948.425842,451.566376 948.536377,450.935699 948.953369,450.159241 
z"/>
<path fill="#EEA277" opacity="1.000000" stroke="none" 
	d="
M881.065796,463.668640 
	C881.392151,463.197205 882.031555,462.846832 882.833618,462.692627 
	C882.457092,463.189117 881.917908,463.489410 881.065796,463.668640 
z"/>
<path fill="#EEA277" opacity="1.000000" stroke="none" 
	d="
M793.160767,464.121338 
	C793.701477,463.902069 794.395874,463.989746 795.164978,464.327271 
	C794.597961,464.527466 793.956238,464.477905 793.160767,464.121338 
z"/>
<path fill="#EEA277" opacity="1.000000" stroke="none" 
	d="
M803.194153,467.171295 
	C803.706482,466.915497 804.412354,466.936707 805.202515,467.195984 
	C804.653748,467.438812 804.020752,467.443542 803.194153,467.171295 
z"/>
<path fill="#EEA277" opacity="1.000000" stroke="none" 
	d="
M952.928345,434.164276 
	C953.145447,434.716858 953.052124,435.422150 952.698730,436.188171 
	C952.498413,435.604919 952.558167,434.960968 952.928345,434.164276 
z"/>
<path fill="#EEA277" opacity="1.000000" stroke="none" 
	d="
M807.161011,468.109222 
	C807.707275,467.890839 808.405945,467.980621 809.171387,468.327667 
	C808.596558,468.529083 807.954956,468.473236 807.161011,468.109222 
z"/>
<path fill="#EEA277" opacity="1.000000" stroke="none" 
	d="
M813.198120,469.209869 
	C813.700134,468.941864 814.401489,468.945953 815.195923,469.181702 
	C814.658447,469.436218 814.028015,469.459076 813.198120,469.209869 
z"/>
<path fill="#EEA277" opacity="1.000000" stroke="none" 
	d="
M920.058228,448.609314 
	C919.894104,448.188110 920.109436,447.977661 920.693359,447.918518 
	C920.721375,448.184265 920.513245,448.434357 920.058228,448.609314 
z"/>
<path fill="#EEA277" opacity="1.000000" stroke="none" 
	d="
M916.029785,450.451324 
	C915.929871,450.025726 916.149597,449.858856 916.685181,449.866577 
	C916.851013,450.294586 916.633850,450.517548 916.029785,450.451324 
z"/>
<path fill="#EEA277" opacity="1.000000" stroke="none" 
	d="
M926.082153,445.678101 
	C925.891541,445.271454 926.093567,445.041779 926.668579,444.925171 
	C926.718445,445.192444 926.529480,445.464752 926.082153,445.678101 
z"/>
<path fill="#EEA277" opacity="1.000000" stroke="none" 
	d="
M931.142700,442.815613 
	C931.072876,442.552582 931.265015,442.282715 931.717163,441.994873 
	C931.786316,442.254181 931.595459,442.531525 931.142700,442.815613 
z"/>
<path fill="#EEA277" opacity="1.000000" stroke="none" 
	d="
M879.057251,464.606628 
	C878.872192,464.195496 879.070129,463.974854 879.633789,463.881042 
	C879.679382,464.150940 879.492981,464.414062 879.057251,464.606628 
z"/>
<path fill="#EEA277" opacity="1.000000" stroke="none" 
	d="
M951.854980,438.194366 
	C952.218933,438.359009 952.214233,438.631195 951.907654,439.038605 
	C951.669495,438.989746 951.567078,438.808685 951.521301,438.614288 
	C951.500122,438.524384 951.589722,438.408478 951.854980,438.194366 
z"/>
<path fill="#EEA277" opacity="1.000000" stroke="none" 
	d="
M950.051758,431.587341 
	C949.875732,431.178070 950.074463,430.969330 950.627686,430.883179 
	C950.668335,431.144012 950.483032,431.404724 950.051758,431.587341 
z"/>
<path fill="#EEA277" opacity="1.000000" stroke="none" 
	d="
M852.032349,469.454346 
	C851.964722,469.011536 852.203308,468.857117 852.752136,468.906433 
	C852.726440,469.174896 852.485168,469.385742 852.032349,469.454346 
z"/>
<path fill="#FEFBFA" opacity="1.000000" stroke="none" 
	d="
M1809.372803,6.900944 
	C1819.118774,10.799232 1827.133301,16.271734 1831.165771,25.885622 
	C1837.197021,40.265049 1832.380249,55.004620 1820.783081,64.082916 
	C1812.962524,70.204918 1803.672363,72.744621 1794.131714,70.927910 
	C1775.939575,67.463799 1762.288086,54.346474 1765.007202,33.820183 
	C1766.813354,20.184200 1777.995850,8.249097 1792.713623,6.736429 
	C1798.072266,6.185665 1803.544800,6.743891 1809.372803,6.900944 
M1815.606445,30.071072 
	C1813.652100,25.092648 1810.169434,22.320290 1804.655273,22.376566 
	C1800.167236,22.422371 1795.674561,22.500929 1791.190918,22.353878 
	C1788.162231,22.254547 1787.062256,23.472589 1787.103882,26.468864 
	C1787.168213,31.107204 1786.901611,35.749916 1786.786255,40.391048 
	C1786.675049,44.867634 1786.419556,49.350880 1786.597412,53.816456 
	C1786.636963,54.806870 1788.227661,55.735470 1789.104004,56.692520 
	C1789.876343,55.794361 1791.070679,54.999893 1791.322754,53.973953 
	C1791.708618,52.403877 1791.470581,50.673882 1791.452515,49.012257 
	C1791.371948,41.592068 1791.366211,41.589348 1799.033691,41.698666 
	C1800.030151,41.712872 1801.028809,41.740467 1802.021973,41.817936 
	C1806.390381,42.158665 1809.719604,45.373981 1810.117676,49.707634 
	C1810.238892,51.026840 1809.853638,52.457523 1810.234375,53.669289 
	C1810.599121,54.829857 1811.657227,55.772499 1812.410522,56.810978 
	C1813.076660,55.767445 1814.405884,54.647072 1814.295410,53.693481 
	C1813.784302,49.281063 1812.872925,44.915020 1812.148682,40.781399 
	C1813.270630,37.642014 1814.488281,34.234924 1815.606445,30.071072 
z"/>
<path fill="#044B94" fill-opacity="0" opacity="1.000000" stroke="none" 
	d="
M319.322632,324.905151 
	C319.694763,308.752075 325.136261,294.649567 333.219818,281.472961 
	C345.026886,262.226868 359.645172,245.603333 379.873535,234.888718 
	C393.374969,227.737244 407.631470,224.226089 423.023254,228.747025 
	C442.678314,234.520187 451.437439,248.358063 452.299530,267.785950 
	C453.471741,294.202667 443.201447,316.099091 425.412720,335.128326 
	C412.630951,348.801453 397.489532,358.737488 379.784485,364.225739 
	C363.879486,369.156006 347.949585,369.639130 333.890045,358.342102 
	C327.070312,352.862366 322.723236,345.692810 320.823669,337.187958 
	C319.959320,333.318268 319.770233,329.297729 319.322632,324.905151 
z"/>
<path fill="#EA6B29" opacity="1.000000" stroke="none" 
	d="
M1815.656128,30.449453 
	C1814.488281,34.234924 1813.270630,37.642014 1812.148682,40.781399 
	C1812.872925,44.915020 1813.784302,49.281063 1814.295410,53.693481 
	C1814.405884,54.647072 1813.076660,55.767445 1812.410522,56.810951 
	C1811.657227,55.772499 1810.599121,54.829857 1810.234375,53.669289 
	C1809.853638,52.457523 1810.238892,51.026840 1810.117676,49.707634 
	C1809.719604,45.373981 1806.390381,42.158665 1802.021973,41.817936 
	C1801.028809,41.740467 1800.030151,41.712872 1799.033691,41.698666 
	C1791.366211,41.589348 1791.371948,41.592068 1791.452515,49.012257 
	C1791.470581,50.673882 1791.708618,52.403877 1791.322754,53.973953 
	C1791.070679,54.999893 1789.876343,55.794361 1789.104004,56.692528 
	C1788.227661,55.735470 1786.636963,54.806870 1786.597412,53.816456 
	C1786.419556,49.350880 1786.675049,44.867634 1786.786255,40.391048 
	C1786.901611,35.749916 1787.168213,31.107204 1787.103882,26.468864 
	C1787.062256,23.472589 1788.162231,22.254547 1791.190918,22.353878 
	C1795.674561,22.500929 1800.167236,22.422371 1804.655273,22.376566 
	C1810.169434,22.320290 1813.652100,25.092648 1815.656128,30.449453 
M1791.150269,28.343893 
	C1791.379028,31.278629 1791.607910,34.213364 1792.402710,37.806377 
	C1796.674438,37.862812 1801.005615,38.356007 1805.191772,37.785286 
	C1807.185425,37.513496 1809.656616,35.564728 1810.504272,33.726585 
	C1811.167969,32.287537 1809.665039,29.849285 1808.583618,27.174732 
	C1802.985962,27.388435 1797.388428,27.602139 1791.150269,28.343893 
z"/>
<path fill="#FFFFFF" opacity="1.000000" stroke="none" 
	d="
M1809.124512,27.854942 
	C1809.665039,29.849285 1811.167969,32.287537 1810.504272,33.726585 
	C1809.656616,35.564728 1807.185425,37.513496 1805.191772,37.785286 
	C1801.005615,38.356007 1796.674438,37.862812 1792.171387,37.429726 
	C1791.939941,37.053078 1792.041138,36.955940 1792.452148,36.912327 
	C1795.795898,36.577240 1798.725098,36.089653 1801.662476,36.033066 
	C1808.897949,35.893688 1809.792480,35.000095 1808.998047,27.997742 
	C1809.040771,27.950556 1809.124512,27.854946 1809.124512,27.854942 
z"/>
<path fill="#FFFFFF" opacity="1.000000" stroke="none" 
	d="
M1791.790771,27.815844 
	C1797.388428,27.602139 1802.985962,27.388435 1808.854004,27.514839 
	C1809.124512,27.854946 1809.040771,27.950556 1808.534424,27.986343 
	C1802.697388,28.026730 1797.366699,28.031324 1791.975098,27.980511 
	C1791.914185,27.925098 1791.790771,27.815845 1791.790771,27.815844 
z"/>
<path fill="#FFFFFF" opacity="1.000000" stroke="none" 
	d="
M1791.888306,37.100590 
	C1791.607910,34.213364 1791.379028,31.278629 1791.470459,28.079868 
	C1791.790771,27.815845 1791.914185,27.925098 1791.974976,28.364506 
	C1792.037598,31.521257 1792.039307,34.238598 1792.041138,36.955940 
	C1792.041138,36.955940 1791.939941,37.053078 1791.888306,37.100590 
z"/>
<path fill="#E6F1F4" opacity="1.000000" stroke="none" 
	d="
M1792.452148,36.912327 
	C1792.039307,34.238598 1792.037598,31.521257 1792.035889,28.419918 
	C1797.366699,28.031324 1802.697388,28.026730 1808.491699,28.033531 
	C1809.792480,35.000095 1808.897949,35.893688 1801.662476,36.033066 
	C1798.725098,36.089653 1795.795898,36.577240 1792.452148,36.912327 
z"/>
</svg>